<svg version="1.1" id="Layer_1" xmlns="http://www.w3.org/2000/svg" xmlns:xlink="http://www.w3.org/1999/xlink" x="0px" y="0px" viewBox="0 0 98 97.6" style="enable-background:new 0 0 98 97.6;" xml:space="preserve">
 <style type="text/css">
  .st0{filter:url(#Adobe_OpacityMaskFilter);}
	.st1{fill-rule:evenodd;clip-rule:evenodd;fill:#FFFFFF;}
	.st2{mask:url(#b_00000162310987217756711310000014041556101245013421_);fill-rule:evenodd;clip-rule:evenodd;fill:#EC1D24;}
	.st3{filter:url(#Adobe_OpacityMaskFilter_00000175303557543298124410000017879256983670012336_);}
	.st4{mask:url(#b_00000019663830853170243530000015890090730177716914_);fill-rule:evenodd;clip-rule:evenodd;fill:#FEFEFE;}
	.st5{filter:url(#Adobe_OpacityMaskFilter_00000046318188793412760610000016245522718481523085_);}
	.st6{mask:url(#b_00000041262158630630216210000013035489993427764624_);fill-rule:evenodd;clip-rule:evenodd;fill:#FEFEFE;}
	.st7{filter:url(#Adobe_OpacityMaskFilter_00000010300823768896793590000017095578720305821371_);}
	.st8{mask:url(#b_00000037669801843768413680000007843344181670878904_);fill-rule:evenodd;clip-rule:evenodd;fill:#FEFEFE;}
 </style>
 <g>
  <defs>
   <filter id="Adobe_OpacityMaskFilter" filterUnits="userSpaceOnUse" x="0" y="0" width="98" height="97.6">
    <feColorMatrix type="matrix" values="1 0 0 0 0  0 1 0 0 0  0 0 1 0 0  0 0 0 1 0">
    </feColorMatrix>
   </filter>
  </defs>
  <mask maskUnits="userSpaceOnUse" x="0" y="0" width="98" height="97.6" id="b_00000162310987217756711310000014041556101245013421_">
   <g class="st0">
    <polygon id="a_00000060736714650792266640000002109143671074422401_" class="st1" points="0,97.6 493,97.6 493,0 0,0 			">
    </polygon>
   </g>
  </mask>
  <polygon class="st2" points="0,97.6 98,97.6 98,0 0,0 	">
  </polygon>
  <defs>
   <filter id="Adobe_OpacityMaskFilter_00000004517316099210227580000006292747202073497232_" filterUnits="userSpaceOnUse" x="11.2" y="4.8" width="75.7" height="88.1">
    <feColorMatrix type="matrix" values="1 0 0 0 0  0 1 0 0 0  0 0 1 0 0  0 0 0 1 0">
    </feColorMatrix>
   </filter>
  </defs>
  <mask maskUnits="userSpaceOnUse" x="11.2" y="4.8" width="75.7" height="88.1" id="b_00000019663830853170243530000015890090730177716914_">
   <g style="filter:url(#Adobe_OpacityMaskFilter_00000004517316099210227580000006292747202073497232_);">
    <polygon id="a_00000029004616808341435890000007564914391599389096_" class="st1" points="0,97.6 493,97.6 493,0 0,0 			">
    </polygon>
   </g>
  </mask>
  <path class="st4" d="M55,4.8H38.2c0,0-27,6.1-27,30.8c0,20.5,19.7,27.1,19.7,27.1s18,7.7,18,16.6c0,8.9-7,13.7-7,13.7h20
		c0,0,24.9-7.2,24.9-30.3c0-15.3-13.3-23.2-19.6-26.6c-6.3-3.4-9.9-5.6-9.9-5.6s-7.6-4.5-7.6-12.4C49.8,9.3,55,4.8,55,4.8">
  </path>
  <defs>
   <filter id="Adobe_OpacityMaskFilter_00000165951998573522011740000008514548407872322965_" filterUnits="userSpaceOnUse" x="12.6" y="67.3" width="20.4" height="21.2">
    <feColorMatrix type="matrix" values="1 0 0 0 0  0 1 0 0 0  0 0 1 0 0  0 0 0 1 0">
    </feColorMatrix>
   </filter>
  </defs>
  <mask maskUnits="userSpaceOnUse" x="12.6" y="67.3" width="20.4" height="21.2" id="b_00000041262158630630216210000013035489993427764624_">
   <g style="filter:url(#Adobe_OpacityMaskFilter_00000165951998573522011740000008514548407872322965_);">
    <polygon id="a_00000149342652286929689350000011301010041031779982_" class="st1" points="0,97.6 493,97.6 493,0 0,0 			">
    </polygon>
   </g>
  </mask>
  <polygon class="st6" points="19.8,80.8 19.8,88.6 12.6,88.6 12.6,67.3 19.8,67.3 19.8,75 25.7,75 25.7,67.3 33,67.3 33,88.6 
		25.7,88.6 25.7,80.8 	">
  </polygon>
  <defs>
   <filter id="Adobe_OpacityMaskFilter_00000075120183042310139550000018304217660844257173_" filterUnits="userSpaceOnUse" x="64.9" y="9.4" width="21.1" height="21.2">
    <feColorMatrix type="matrix" values="1 0 0 0 0  0 1 0 0 0  0 0 1 0 0  0 0 0 1 0">
    </feColorMatrix>
   </filter>
  </defs>
  <mask maskUnits="userSpaceOnUse" x="64.9" y="9.4" width="21.1" height="21.2" id="b_00000037669801843768413680000007843344181670878904_">
   <g style="filter:url(#Adobe_OpacityMaskFilter_00000075120183042310139550000018304217660844257173_);">
    <polygon id="a_00000068641710233765554580000003049771968184764078_" class="st1" points="0,97.6 493,97.6 493,0 0,0 			">
    </polygon>
   </g>
  </mask>
  <polygon class="st8" points="73.8,23.2 72.2,23.2 72.2,30.6 64.9,30.6 64.9,9.4 72.2,9.4 72.2,15.7 73.3,15.7 78.9,9.4 86,9.4 
		78.8,17.9 86,30.6 78,30.6 	">
  </polygon>
 </g>
</svg>