<svg width="768" height="767.999994" xmlns="http://www.w3.org/2000/svg" zoomAndPan="magnify" preserveAspectRatio="xMidYMid meet" version="1.0">
 <defs>
  <g id="svg_1"/>
 </defs>
 <g>
  <title>Layer 1</title>
  <g fill="#ffffff" id="svg_2"/>
  <g fill="#ffffff" id="svg_6"/>
  <g fill="#ffffff" id="svg_10"/>
  <g fill="#ffffff" id="svg_22">
   <g id="svg_23">
    <g id="svg_24"/>
   </g>
  </g>
  <g fill="#ffffff" id="svg_29"/>
  <g fill="#ffffff" id="svg_33"/>
  <g fill="#1aede6" id="svg_49">
   <g id="svg_50">
    <g id="svg_51">
     <path d="m57.44855,410.77277c20.22656,-3.76953 30.34375,-14.17969 30.34375,-31.23438c0,-7.53125 -0.9961,-20.42187 -2.98438,-38.67187c-1.98047,-19.42578 -2.96875,-33.50391 -2.96875,-42.23438c0,-14.28125 4.01563,-25.1875 12.04688,-32.71875c8.03125,-7.53906 18.78515,-11.3125 32.26562,-11.3125l17.26563,0l0,23.5l-12.20313,0c-7.73047,0 -13.48047,1.74219 -17.25,5.21875c-3.77344,3.46875 -5.65625,9.16797 -5.65625,17.09375c0,5.75 0.39453,12.83985 1.1875,21.26563c0.80078,8.42969 1.30078,14.13281 1.5,17.10937c1.97656,19.03125 2.96875,32.91407 2.96875,41.64063c0,10.51172 -2.63281,19.28906 -7.89062,26.32812c-5.25,7.04297 -13.32813,11.75 -24.23438,14.125l0,0.59375c10.90625,2.38672 18.98438,7.14844 24.23438,14.28125c5.25781,7.13672 7.89062,15.96094 7.89062,26.46875c0,8.73047 -0.99219,22.60938 -2.96875,41.64063c-0.19922,2.98047 -0.69922,8.68359 -1.5,17.10937c-0.79297,8.42969 -1.1875,15.51563 -1.1875,21.26563c0,7.9375 1.88281,13.64063 5.65625,17.10938c3.76953,3.46875 9.51953,5.20312 17.25,5.20312l12.20313,0l0,23.5l-17.26563,0c-13.48047,0 -24.23437,-3.77344 -32.26562,-11.3125c-8.03125,-7.53125 -12.04688,-18.4375 -12.04688,-32.71875c0,-8.71875 0.98828,-22.79688 2.96875,-42.23438c1.98828,-18.23828 2.98438,-31.1289 2.98438,-38.67187c0,-17.05078 -10.11719,-27.46094 -30.34375,-31.23438l0,-21.10937zm0,0" id="svg_52"/>
    </g>
   </g>
  </g>
  <g fill="#1aede6" id="svg_53">
   <g id="svg_54">
    <g id="svg_55">
     <path d="m719.25208,434.77557c-20.36719,3.79297 -30.54688,14.27735 -30.54688,31.45313c0,7.58594 1,20.5625 3,38.9375c1.98828,19.5625 2.98438,33.73828 2.98438,42.53125c0,14.375 -4.04297,25.35156 -12.125,32.9375c-8.08594,7.58203 -18.91797,11.375 -32.5,11.375l-17.375,0l0,-23.65625l12.28125,0c7.78906,0 13.58203,-1.75 17.375,-5.25c3.78906,-3.49219 5.6875,-9.22656 5.6875,-17.20312c0,-5.79297 -0.40235,-12.92969 -1.20313,-21.42188c-0.79297,-8.48828 -1.28906,-14.22656 -1.48437,-17.21875c-2,-19.16406 -3,-33.14453 -3,-41.9375c0,-10.58203 2.64453,-19.46875 7.9375,-26.65625c5.28906,-7.1875 13.42578,-11.97656 24.40625,-14.375l0,-0.59375c-10.98047,-2.39453 -19.11719,-7.13281 -24.40625,-14.21875c-5.29297,-7.09375 -7.9375,-15.92969 -7.9375,-26.51563c0,-8.78125 1,-22.7539 3,-41.92187c0.19531,-3 0.6914,-8.73828 1.48437,-17.21875c0.80078,-8.48828 1.20313,-15.62891 1.20313,-21.42188c0,-7.98828 -1.89844,-13.72656 -5.6875,-17.21875c-3.79297,-3.5 -9.58594,-5.25 -17.375,-5.25l-12.28125,0l0,-23.65625l17.375,0c13.58203,0 24.41406,3.79688 32.5,11.39063c8.08203,7.58594 12.125,18.5625 12.125,32.9375c0,8.78125 -0.9961,22.96094 -2.98438,42.53125c-2,18.36719 -3,31.34375 -3,38.9375c0,17.16797 10.17969,27.64844 30.54688,31.4375l0,21.26562zm0,0" id="svg_56"/>
    </g>
   </g>
  </g>
  <text fill="#ffffff" stroke="#000" x="146.74232" y="389.95908" id="svg_58" font-size="130" font-family="Noto Sans JP" text-anchor="start" xml:space="preserve">Schouten</text>
  <text fill="#ffffff" stroke="#000" x="273.39326" y="537.26347" id="svg_60" font-size="130" font-family="Noto Sans JP" text-anchor="start" xml:space="preserve">Tom</text>
 </g>
</svg>